<?xml version="1.0" encoding="UTF-8"?>
<svg width="431.99" height="632" version="1.1" viewBox="0 0 4.7999441 7.0222209" xmlns="http://www.w3.org/2000/svg" xmlns:xlink="http://www.w3.org/1999/xlink">
 <defs>
  <linearGradient id="a">
   <stop stop-color="#fdfdfd" offset="0"/>
   <stop stop-color="#cbcbcb" offset=".5"/>
   <stop stop-color="#a8a8a8" offset=".5"/>
   <stop stop-color="#474747" offset="1"/>
  </linearGradient>
  <radialGradient id="l" cx="3.3333" cy="6.5556" r="2.2889" gradientTransform="matrix(1.4086 0 0 2.9474 -1.3619 -12.766)" gradientUnits="userSpaceOnUse">
   <stop stop-color="#e3e3e3" offset="0"/>
   <stop stop-color="#626262" offset="1"/>
  </radialGradient>
  <radialGradient id="m" cx="3.3333" cy="5.9709" r="2.2889" gradientTransform="matrix(.50844 0 0 1.6451 1.6385 -4.582)" gradientUnits="userSpaceOnUse">
   <stop stop-color="#e3e3e3" offset="0"/>
   <stop stop-color="#b1b1b1" stop-opacity="0" offset="1"/>
  </radialGradient>
  <radialGradient id="n" cx="3.3333" cy="5.5946" r="2.2889" gradientTransform="matrix(1.5905 0 0 2.5016 -1.9683 -7.861)" gradientUnits="userSpaceOnUse">
   <stop stop-color="#fff" offset="0"/>
   <stop stop-color="#fff" stop-opacity=".17391" offset=".5"/>
   <stop stop-color="#bcbcbc" stop-opacity="0" offset="1"/>
  </radialGradient>
  <radialGradient id="o" cx="1.5953" cy="2.861" r=".14281" gradientTransform="matrix(.45625 0 0 .45625 1.1713 2.143)" gradientUnits="userSpaceOnUse" xlink:href="#a"/>
  <radialGradient id="p" cx="1.5953" cy="2.861" r=".14281" gradientTransform="matrix(.45625 0 0 .45625 4.0531 2.143)" gradientUnits="userSpaceOnUse" xlink:href="#a"/>
  <radialGradient id="q" cx="1.5953" cy="2.861" r=".14281" gradientTransform="matrix(.45625 0 0 .45625 .60978 2.6815)" gradientUnits="userSpaceOnUse" xlink:href="#a"/>
  <radialGradient id="r" cx="1.5953" cy="2.861" r=".14281" gradientTransform="matrix(.45625 0 0 .45625 4.6011 2.6815)" gradientUnits="userSpaceOnUse" xlink:href="#a"/>
  <radialGradient id="s" cx="1.5953" cy="2.861" r=".14281" gradientTransform="matrix(.45625 0 0 .45625 2.6055 8.3575)" gradientUnits="userSpaceOnUse" xlink:href="#a"/>
  <radialGradient id="t" cx="1.5953" cy="2.861" r=".14281" gradientTransform="matrix(.45625 0 0 .45625 .60978 5.4107)" gradientUnits="userSpaceOnUse" xlink:href="#a"/>
  <radialGradient id="u" cx="1.5953" cy="2.861" r=".14281" gradientTransform="matrix(.45625 0 0 .45625 4.6011 5.4107)" gradientUnits="userSpaceOnUse" xlink:href="#a"/>
 </defs>
 <g transform="translate(-.93336 -3.0444)">
  <path d="m3.3334 9.8889c0.55405 1.7e-6 2.2222-2.2419 2.2222-3.3334v-2.7783c-0.55676 0.00587-0.5524-0.23789-0.5524-0.55499h-3.3354c1e-7 0.31571-0.010476 0.56069-0.55659 0.55499v2.7783c1e-7 1.0915 1.6606 3.3334 2.2222 3.3334z" fill="url(#l)" fill-rule="evenodd" stroke="#000" stroke-width=".13333"/>
  <path d="m3.3334 9.8889c0.55405 1.7e-6 2.2222-2.2419 2.2222-3.3334v-2.7783c-0.55676 0.00587-0.5524-0.23789-0.5524-0.55499h-3.3354c1e-7 0.31571-0.010476 0.56069-0.55659 0.55499v2.7783c1e-7 1.0915 1.6606 3.3334 2.2222 3.3334z" fill="url(#m)" fill-rule="evenodd" stroke="#4f4f4f" stroke-width=".11111"/>
  <path d="m3.3334 9.8889c0.55405 2e-6 2.2222-2.2419 2.2222-3.3334v-2.7783c-0.55676 0.00587-0.5524-0.23789-0.5524-0.55499h-3.3354c1e-7 0.31571-0.010476 0.56069-0.55659 0.55499v2.7783c1e-7 1.0915 1.6606 3.3334 2.2222 3.3334z" fill="url(#n)" fill-rule="evenodd" stroke="#777" stroke-width=".088889"/>
  <path d="m3.3334 9.8889c0.55405 2e-6 2.2222-2.2419 2.2222-3.3334v-2.7783c-0.55676 0.00587-0.5524-0.23789-0.5524-0.55499h-3.3354c1e-7 0.31571-0.010476 0.56069-0.55659 0.55499v2.7783c1e-7 1.0915 1.6606 3.3334 2.2222 3.3334z" fill="none" stroke="#777" stroke-width=".066667"/>
  <path d="m3.3334 9.8889c0.55405 2e-6 2.2222-2.2419 2.2222-3.3334v-2.7783c-0.55676 0.00587-0.5524-0.23789-0.5524-0.55499h-3.3354c1e-7 0.31571-0.010476 0.56069-0.55659 0.55499v2.7783c1e-7 1.0915 1.6606 3.3334 2.2222 3.3334z" fill="none" stroke="#898989" stroke-width=".044444"/>
  <path d="m3.3334 9.8889c0.55405 2e-6 2.2222-2.2419 2.2222-3.3334v-2.7783c-0.55676 0.00587-0.5524-0.23789-0.5524-0.55499h-3.3354c1e-7 0.31571-0.010476 0.56069-0.55659 0.55499v2.7783c1e-7 1.0915 1.6606 3.3334 2.2222 3.3334z" fill="none" stroke="#b7b7b7" stroke-width=".022222"/>
  <path d="m3.3334 9.8889c0.55405 2e-6 2.2222-2.2419 2.2222-3.3334v-2.7783c-0.55676 0.00587-0.5524-0.23789-0.5524-0.55499h-3.3354c1e-7 0.31571-0.010476 0.56069-0.55659 0.55499v2.7783c1e-7 1.0915 1.6606 3.3334 2.2222 3.3334z" fill="none" stroke="#d8d8d8" stroke-width=".011111"/>
  <g fill-rule="evenodd" stroke="#000" stroke-linecap="round" stroke-linejoin="round" stroke-width=".0055556">
   <circle cx="1.8992" cy="3.4483" r=".063889" color="black" fill="url(#o)"/>
   <circle cx="4.781" cy="3.4483" r=".063889" color="black" fill="url(#p)"/>
   <circle cx="1.3377" cy="3.9868" r=".063889" color="black" fill="url(#q)"/>
   <circle cx="5.329" cy="3.9868" r=".063889" color="black" fill="url(#r)"/>
   <circle cx="3.3333" cy="9.6628" r=".063889" color="black" fill="url(#s)"/>
   <circle cx="1.3377" cy="6.7161" r=".063889" color="black" fill="url(#t)"/>
   <circle cx="5.329" cy="6.7161" r=".063889" color="black" fill="url(#u)"/>
  </g>
 </g>
</svg>
